<svg version="1.2" xmlns="http://www.w3.org/2000/svg" viewBox="0 0 660 470" width="660" height="470">
  <defs>
    <clipPath clipPathUnits="userSpaceOnUse" id="cp1">
      <path d="m-89-2.35h958.34v683.35h-958.34z" />
    </clipPath>
    <clipPath clipPathUnits="userSpaceOnUse" id="cp2">
      <path d="m-89-2.35h958.34v683.35h-958.34z" />
    </clipPath>
    <clipPath clipPathUnits="userSpaceOnUse" id="cp3">
      <path d="m-89-2.35h958.34v683.35h-958.34z" />
    </clipPath>
    <clipPath clipPathUnits="userSpaceOnUse" id="cp4">
      <path d="m-89-2.35h958.34v683.35h-958.34z" />
    </clipPath>
    <clipPath clipPathUnits="userSpaceOnUse" id="cp5">
      <path d="m-89-2.35h958.34v683.35h-958.34z" />
    </clipPath>
    <clipPath clipPathUnits="userSpaceOnUse" id="cp6">
      <path d="m-89-2.35h958.34v683.35h-958.34z" />
    </clipPath>
    <clipPath clipPathUnits="userSpaceOnUse" id="cp7">
      <path d="m-89-2.35h958.34v683.35h-958.34z" />
    </clipPath>
  </defs>
  <style>.a{fill:#93c358}.b{fill:#e62d2f}.c{fill:#ffda00}.d{fill:#0090d7}.e{fill:#525251}</style>
  <g clip-path="url(#cp1)">
    <path class="a"
      d="m73.4 420c67.6 55 173 53.2 251.6-9.3 20.4-16.2 37.2-35.2 50.2-55.7-40.1 41.8-96.6 67.4-158.7 66.3-49.2-0.8-94.3-18.2-130.1-46.8z" />
  </g>
  <g clip-path="url(#cp2)">
    <path class="b"
      d="m2.7 257.5c12 86.3 90.3 156.9 190.4 164.7 26 2.1 51.2-0.3 74.7-6.4-57.8 3.2-116.6-16.6-161.3-59.8-35.4-34.2-56.5-77.6-63.2-122.9z" />
  </g>
  <g clip-path="url(#cp3)">
    <path class="c"
      d="m61.8 90.6c-50.1 71.3-40.9 176.4 26.9 250.4 17.6 19.2 37.7 34.6 59 46.2-44.5-37.1-73.9-91.6-77.2-153.7-2.6-49.2 11.6-95.3 37.7-133z" />
  </g>
  <g clip-path="url(#cp4)">
    <path class="d"
      d="m218.7 10.4c-85.3 17.9-150.2 101-151.1 201.4-0.2 26 3.9 51 11.6 74-7.2-57.4 8.4-117.4 48.4-165.1 31.6-37.7 73.5-61.7 118.3-71.5z" />
  </g>
  <g clip-path="url(#cp5)">
    <path class="e"
      d="m578.8 193.8h-30.8v83.5h30.8zm-55.2 83.6v-23.8h-25.1c-4.4 0-12 0.7-12 0.7 17.5-10.8 31.2-20.5 31.2-37.4 0-17.6-14.7-25.4-38.6-25.4-17.6 0-30.5 6.2-38.3 12.7l14 19c3.8-2.9 10.5-8 18.8-8 7 0 11.4 2.5 11.4 8.5 0 11.3-26.4 27.6-44.9 39.3v14.4zm-99.1-26.5c0-14-7.6-20.1-20.5-25.2-9.6-3.7-17.9-4.1-17.9-8 0-2.5 2.3-4.2 9.6-4.2 7.1 0 13.9 2.5 17.3 4.4l9.3-20.3c-4.6-2.4-13.5-5.8-28.3-5.8-20.5 0-34.7 10-34.7 27.6 0 11.5 4.9 18.3 15.2 23.7 11.7 6.1 23.3 6.3 23.3 10.4 0 3-3.8 4.2-11.2 4.2-8.5 0-17.1-4.6-20.5-6.9l-9.3 20.6c5 3.4 15 8 32 8 22.3 0 35.7-9.2 35.7-28.5zm-83.7 21.7l-8.3-19.6c-2.7 1.1-7.2 3.7-16 3.7-11.9 0-17.8-8.1-17.8-21.9 0-13.3 6.6-20.6 17.1-20.6 7.3 0 12.3 1.7 15.7 3.4l8.3-20.2c-3.9-2.4-12-5.6-25.5-5.6-28.7 0-47.8 16.1-47.8 44.1 0 27.9 18.8 43.5 47.1 43.5 15.7 0 23-4.4 27.2-6.8zm-93.5 4.8c-1.3-6.3-2.7-15.6-2.7-29v-23.2c0-24.4-11.1-33.4-37.6-33.4-18.8 0-31.3 7.5-36.9 12.4l12.2 17.9c3-2 10.8-7.1 20.8-7.1 9 0 11.2 2.6 11.2 7.3v2.5h-2.4c-23.3 0-44.3 8.9-44.3 30.2 0 16.1 11.7 24.4 26 24.4 11.4 0 18.7-5.8 22.2-10.2 0.2 2.6 0.9 6.1 1.7 8.2zm-33-22.7c-2 1.7-4.9 3.9-10.2 3.9-5.2 0-8.3-2.4-8.3-6.5 0-6.6 6.5-9.6 16.1-9.6h2.4z" />
  </g>
  <g clip-path="url(#cp6)"></g>
  <g clip-path="url(#cp7)">
    <path class="a"
      d="m581.1 164.4c0-9-7.1-16.6-17.5-16.6-10.3 0-17.4 7.6-17.4 16.6 0 9 7.1 16.8 17.4 16.8 10.4 0 17.5-7.8 17.5-16.8z" />
  </g>
</svg>